<svg width="17" height="31" viewBox="0 0 17 31" fill="none" xmlns="http://www.w3.org/2000/svg">
<path d="M15.281 29.6747V6.03038C15.2809 5.77699 15.2011 5.53005 15.053 5.32447C14.9049 5.11888 14.6959 4.96507 14.4556 4.88477L2.38808 0.862266C2.20663 0.801457 2.0133 0.784733 1.8241 0.813478C1.63491 0.842224 1.45527 0.915613 1.30007 1.02757C1.14487 1.13953 1.01856 1.28684 0.931602 1.45731C0.844641 1.62778 0.799526 1.81651 0.799991 2.00787V29.6747" stroke="#A0A3BD" stroke-width="1.6" stroke-linecap="round" stroke-linejoin="round"/>
<path d="M10.4523 22.0547V23.2614" stroke="#A0A3BD" stroke-width="1.6" stroke-linecap="round" stroke-linejoin="round"/>
<path d="M10.4523 16.021V17.2277" stroke="#A0A3BD" stroke-width="1.6" stroke-linecap="round" stroke-linejoin="round"/>
<path d="M10.4523 9.9873V11.1941" stroke="#A0A3BD" stroke-width="1.6" stroke-linecap="round" stroke-linejoin="round"/>
<path d="M5.62811 22.0547V23.2614" stroke="#A0A3BD" stroke-width="1.6" stroke-linecap="round" stroke-linejoin="round"/>
<path d="M5.62811 16.021V17.2277" stroke="#A0A3BD" stroke-width="1.6" stroke-linecap="round" stroke-linejoin="round"/>
<path d="M5.62811 9.9873V11.1941" stroke="#A0A3BD" stroke-width="1.6" stroke-linecap="round" stroke-linejoin="round"/>
</svg>
