<?xml version="1.0" encoding="UTF-8" standalone="no"?>
<svg
   width="16.081013"
   height="30.517178"
   viewBox="0 0 16.081013 30.517178"
   fill="none"
   version="1.1"
   id="svg7"
   xmlns="http://www.w3.org/2000/svg"
   xmlns:svg="http://www.w3.org/2000/svg">
  <defs
     id="defs7" />
  <path
     d="M 15.281013,29.674848 V 6.0305682 c -10e-5,-0.25339 -0.0799,-0.50033 -0.228,-0.70591 -0.1481,-0.20558 -0.3571,-0.3594 -0.5974,-0.4397 L 2.3880926,0.86245821 c -0.18145,-0.060809 -0.37478,-0.077533 -0.56398,-0.048787 -0.18919,0.028745 -0.36883,0.102135 -0.52403,0.21409699 -0.1552,0.11195 -0.28151,0.25926 -0.36846803,0.42973 -0.086961,0.17047 -0.132076,0.3592 -0.131611,0.55057 V 29.674848"
     stroke="#a0a3bd"
     stroke-width="1.6"
     stroke-linecap="round"
     stroke-linejoin="round"
     id="path1" />
  <path
     d="m 10.452313,22.054748 v 1.2068"
     stroke="#a0a3bd"
     stroke-width="1.6"
     stroke-linecap="round"
     stroke-linejoin="round"
     id="path2" />
  <path
     d="m 10.452313,16.021048 v 1.2068"
     stroke="#a0a3bd"
     stroke-width="1.6"
     stroke-linecap="round"
     stroke-linejoin="round"
     id="path3" />
  <path
     d="M 10.452313,9.9873782 V 11.194148"
     stroke="#a0a3bd"
     stroke-width="1.6"
     stroke-linecap="round"
     stroke-linejoin="round"
     id="path4" />
  <path
     d="m 5.6281226,22.054748 v 1.2068"
     stroke="#a0a3bd"
     stroke-width="1.6"
     stroke-linecap="round"
     stroke-linejoin="round"
     id="path5" />
  <path
     d="m 5.6281226,16.021048 v 1.2068"
     stroke="#a0a3bd"
     stroke-width="1.6"
     stroke-linecap="round"
     stroke-linejoin="round"
     id="path6" />
  <path
     d="M 5.6281226,9.9873782 V 11.194148"
     stroke="#a0a3bd"
     stroke-width="1.6"
     stroke-linecap="round"
     stroke-linejoin="round"
     id="path7" />
  <path
     d="M 15.373981,29.811907 0.75246236,29.79687"
     stroke="#a0a3bd"
     stroke-width="1.41054"
     stroke-linecap="round"
     stroke-linejoin="round"
     id="path7-0" />
</svg>
