<svg width="17" height="28" viewBox="0 0 17 28" fill="none" xmlns="http://www.w3.org/2000/svg">
<path d="M13.2348 0.799805H3.06086C1.81221 0.799805 0.799988 1.81203 0.799988 3.06067V24.5389C0.799988 25.7876 1.81221 26.7998 3.06086 26.7998H13.2348C14.4834 26.7998 15.4956 25.7876 15.4956 24.5389V3.06067C15.4956 1.81203 14.4834 0.799805 13.2348 0.799805Z" stroke="#A0A3BD" stroke-width="1.6" stroke-linecap="round" stroke-linejoin="round"/>
<path d="M11.8509 0.799805V2.28103C11.8509 2.67388 11.6949 3.05064 11.4171 3.32842C11.1393 3.60621 10.7625 3.76226 10.3697 3.76226H5.92599C5.53315 3.76226 5.15639 3.60621 4.87861 3.32842C4.60082 3.05064 4.44476 2.67388 4.44476 2.28103V0.799805" stroke="#A0A3BD" stroke-width="1.6" stroke-linecap="round" stroke-linejoin="round"/>
</svg>
